HIERARCHY
ROOT Hips
{
  OFFSET 3.13124 94.3669 -3.18751
  CHANNELS  6 Xposition Yposition Zposition Zrotation Xrotation Yrotation
  JOINT LeftUpLeg
  {
    OFFSET 8.64259 1.95398 -2.38835
    CHANNELS 3 Zrotation Xrotation Yrotation
    JOINT LeftLeg
    {
      OFFSET 43.7702 0 0
      CHANNELS 3 Zrotation Xrotation Yrotation
      JOINT LeftFoot
      {
        OFFSET 40.6238 0 0
        CHANNELS 3 Zrotation Xrotation Yrotation
        JOINT LeftToeBase
        {
          OFFSET 12.7242 0 0
          CHANNELS 3 Zrotation Xrotation Yrotation
          End Site
          {
            OFFSET 0 0 0
          }
        }
      }
    }
  }
  JOINT RightUpLeg
  {
    OFFSET -8.2249 1.95398 -2.59336
    CHANNELS 3 Zrotation Xrotation Yrotation
    JOINT RightLeg
    {
      OFFSET 43.5653 0 0
      CHANNELS 3 Zrotation Xrotation Yrotation
      JOINT RightFoot
      {
        OFFSET 40.6238 0 0
        CHANNELS 3 Zrotation Xrotation Yrotation
        JOINT RightToeBase
        {
          OFFSET 12.7242 0 0
          CHANNELS 3 Zrotation Xrotation Yrotation
          End Site
          {
            OFFSET 0 0 0
          }
        }
      }
    }
  }
  JOINT Spine
  {
    OFFSET 0.165834 0.87714 6.61349
    CHANNELS 3 Zrotation Xrotation Yrotation
    JOINT Spine1
    {
      OFFSET 7.38962 1.71661e-005 0
      CHANNELS 3 Zrotation Xrotation Yrotation
      JOINT Spine2
      {
        OFFSET 11.9445 1.14441e-005 0
        CHANNELS 3 Zrotation Xrotation Yrotation
        JOINT Spine3
        {
          OFFSET 14.7254 4.19617e-005 0
          CHANNELS 3 Zrotation Xrotation Yrotation
          JOINT Spine4
          {
            OFFSET 10.9679 0 0
            CHANNELS 3 Zrotation Xrotation Yrotation
            JOINT RightShoulder
            {
              OFFSET 2.46616 -1.6653 3.69651
              CHANNELS 3 Zrotation Xrotation Yrotation
              JOINT RightArm
              {
                OFFSET 13.0012 0 0
                CHANNELS 3 Zrotation Xrotation Yrotation
                JOINT RightForeArm
                {
                  OFFSET 28.7848 1.52588e-005 0
                  CHANNELS 3 Zrotation Xrotation Yrotation
                  JOINT RightHand
                  {
                    OFFSET 26.5688 1.52588e-005 0
                    CHANNELS 3 Zrotation Xrotation Yrotation
                    End Site
                    {
                      OFFSET 0 0 0
                    }
                  }
                }
              }
            }
            JOINT LeftShoulder
            {
              OFFSET 2.38034 -1.29275 -3.75231
              CHANNELS 3 Zrotation Xrotation Yrotation
              JOINT LeftArm
              {
                OFFSET 16.3182 6.10352e-005 0
                CHANNELS 3 Zrotation Xrotation Yrotation
                JOINT LeftForeArm
                {
                  OFFSET 27.0901 0 0
                  CHANNELS 3 Zrotation Xrotation Yrotation
                  JOINT LeftHand
                  {
                    OFFSET 24.5451 1.52588e-005 0
                    CHANNELS 3 Zrotation Xrotation Yrotation
                    End Site
                    {
                      OFFSET 0 0 0
                    }
                  }
                }
              }
            }
            JOINT Neck
            {
              OFFSET 5.0226 -0.0266342 0
              CHANNELS 3 Zrotation Xrotation Yrotation
              JOINT Head
              {
                OFFSET 6.69363 2.86102e-005 0
                CHANNELS 3 Zrotation Xrotation Yrotation
                End Site
                {
                  OFFSET 0 0 0
                }
              }
            }
          }
        }
      }
    }
  }
}
MOTION
Frames:	10
Frame Time:	0.0333333
-16.8904 88.0567 10.0074 -94.1671 57.0851 -98.0111 -174.409 23.4077 79.5716 -51.3266 -9.96316 -0.627434 70.9637 -1.40204 -0.666977 28.7808 7.73236e-006 1.06584e-005 -173.699 23.1027 76.6343 -95.6356 -24.2799 -2.99928 32.9444 31.54 32.2804 28.7808 1.73858e-005 2.59385e-005 2.63864 7.62169 -85.8184 11.8234 5.35052 2.07379 0.162405 5.4364 1.83384 -22.4259 4.48104 3.58432 -2.41322 4.48103 3.5843 97.5777 -42.0917 -89.9155 38.3818 37.4123 -81.8099 -14.8834 -59.5412 -0.015773 -37.1716 -1.266 -1.17952 -88.0655 -33.128 77.891 14.3054 -32.047 -20.3985 1.80724 -30.661 -2.75171 17.8809 9.70088 46.7294 27.6729 -23.0366 20.9328 -23.4416 -22.9954 -38.5504 
-17.6053 90.6534 8.26357 -95.8533 60.1568 -94.0293 -174.227 18.9637 82.4078 -46.3417 -9.4631 0.971319 66.3187 -3.03903 -1.75767 28.7808 7.73236e-006 1.06584e-005 -174.446 28.8887 79.5572 -101.938 -19.3387 -2.82561 30.0475 30.1965 32.5153 28.7808 1.73858e-005 2.59385e-005 2.18497 7.36234 -86.0674 12.2957 4.53664 1.85901 0.631628 4.61403 1.6572 -21.9401 3.76824 3.13758 -1.92743 3.76823 3.13758 100.426 -37.9848 -85.2032 33.2135 44.4418 -79.4354 -13.2464 -50.7083 -0.0122163 -33.591 0.731314 -7.8438 -86.9506 -26.3531 78.1441 12.3833 -29.9444 -16.5901 1.85218 -26.2894 -2.83879 24.051 1.83348 3.80852 22.165 -25.0366 16.1013 -18.9073 -24.3455 -35.9746 
-18.097 94.7779 5.98985 -101.096 64.4964 -86.0868 -173.341 12.0584 86.9673 -38.3902 -7.77805 1.96169 55.8998 -4.67972 -3.56605 28.7808 7.73236e-006 1.06584e-005 -176.713 27.6413 83.03 -104.148 -26.8162 -3.34573 50.6043 31.5936 23.5508 28.7808 1.73858e-005 2.59385e-005 1.99111 7.24924 -86.9901 12.4744 3.81079 1.40199 0.808349 3.86877 1.2327 -21.7543 3.21323 2.48324 -1.74171 3.21321 2.48322 101.8 -34.2721 -82.7501 30.3684 49.464 -78.0054 -13.9981 -41.3717 -0.00984127 -18.1293 2.07322 -18.9513 -85.8298 -22.3217 79.2931 16.9178 -32.6358 -18.3779 1.90811 -22.0266 -2.9043 23.8345 4.26139 14.1674 17.815 -24.8915 15.8798 -17.3976 -24.0831 -36.6215 
-18.2984 99.5078 3.51072 -108.484 69.1678 -75.8765 -171.779 5.67722 91.666 -29.1287 -7.07049 1.90397 39.1912 -4.11086 -4.74705 28.7808 7.73236e-006 1.06584e-005 -179.332 20.8156 86.7369 -102.554 -33.2917 -3.71636 82.4856 20.2144 7.30201 28.7808 1.73858e-005 2.59385e-005 1.66793 7.22143 -88.0325 12.4836 3.12572 1.06508 0.81607 3.16954 0.92629 -21.7389 2.66107 1.95572 -1.72625 2.66107 1.9557 102.363 -31.7495 -81.6538 22.5044 54.5419 -71.1962 -16.3277 -68.8401 -0.0194449 -48.0433 -1.15639 -2.36509 -84.2544 -17.5531 81.561 17.8837 -32.1557 -15.6965 1.95477 -18.659 -2.9578 23.5937 1.33057 1.77307 16.1927 -23.7059 16.0672 -17.5473 -22.7844 -36.4654 
-18.0328 102.63 1.65494 -116.962 74.4466 -66.2393 -170.575 3.45571 94.0358 -24.7241 -9.07713 1.4543 24.2556 -2.93154 -5.20465 28.7808 7.73236e-006 1.06584e-005 178.708 28.9172 91.4782 -108.427 7.83282 -1.17602 63.1653 53.1476 31.5903 28.7808 1.73858e-005 2.59385e-005 1.49273 7.25351 -88.1104 12.4072 2.63626 0.75234 0.738718 2.66679 0.636748 -21.8117 2.28821 1.51026 -1.79904 2.28819 1.51023 103.356 -26.6127 -79.4954 17.7004 58.2002 -63.568 -18.2185 -76.6007 -0.0287746 -47.9998 -2.22377 -0.0643337 -82.8266 -15.2933 84.3339 21.0914 -33.8729 -16.3623 2.00411 -15.2812 -3.01351 21.7748 2.18796 6.22729 20.0874 -21.3167 22.2908 -22.6511 -20.5135 -40.4498 
-17.7823 105.017 -0.348658 -127.8 78.5597 -54.761 -170.084 2.60586 94.7545 -23.122 -6.82771 1.91971 18.8673 -2.14967 -4.90476 28.7808 7.73236e-006 1.06584e-005 178.538 38.9339 90.3207 -114.718 -17.6917 -3.02604 29.6851 8.95806 10.6535 28.7808 1.73858e-005 2.59385e-005 1.11363 7.35992 -88.0013 12.1946 2.05199 0.686738 0.525304 2.08015 0.594336 -22.0191 1.75104 1.27067 -2.00643 1.75104 1.27064 104.707 -22.2047 -76.1573 12.9617 61.1763 -55.6198 -17.2915 -72.4893 -0.0212489 -42.3597 -2.59018 1.61021 -81.0516 -12.5436 88.2819 22.4301 -35.5892 -19.1473 2.02557 -13.8742 -3.03743 24.8023 3.20023 9.0742 28.2942 -19.5164 24.375 -28.7128 -19.1866 -39.076 
-17.426 106.619 -2.03763 -142.222 82.2614 -39.9035 -170.131 3.44934 94.117 -22.049 -0.459032 2.3781 20.4531 -2.54857 -5.27729 28.7808 7.73236e-006 1.06584e-005 177.947 42.758 91.0764 -116.434 -17.6704 -3.05502 29.8472 8.05805 9.804 28.7808 1.73858e-005 2.59385e-005 0.757226 7.34982 -88.0981 12.199 1.49883 0.731132 0.528679 1.52957 0.664493 -22.0095 1.20988 1.14973 -1.9969 1.20988 1.14972 105.715 -18.6585 -73.2486 1.08518 63.2418 -39.6905 -11.5941 -54.4624 -0.0107897 -34.1384 -2.09246 1.99098 -79.6648 -8.94157 91.481 23.9214 -38.3337 -24.1496 1.93576 -19.8176 -2.93418 26.4765 6.82112 21.9192 35.0065 -19.1323 23.3649 -32.2472 -19.4853 -35.2053 
-17.3749 106.511 -3.74173 -179.324 84.2194 -4.19817 -170.864 5.49126 91.6247 -23.6901 -0.341054 1.76707 26.5909 -3.73608 -6.00751 28.7808 7.73236e-006 1.06584e-005 177.599 50.9149 91.8452 -115.139 28.1298 -0.0797853 -5.72525 5.4601 14.9325 28.7808 1.73858e-005 2.59385e-005 0.388203 7.33395 -87.4515 12.2303 1.22093 0.874456 0.559692 1.25842 0.81931 -21.976 0.900361 1.20464 -1.96332 0.900352 1.20462 106.447 -14.7311 -70.6038 -7.09032 64.5933 -26.6483 -11.5373 -49.4936 -0.00986661 -40.4024 -0.174875 -4.6847 -79.426 -7.41299 91.9918 28.6884 -39.6311 -20.4479 1.47708 -39.5329 -3.02066 16.2578 0.0803405 -3.32848 37.8162 -19.3149 23.2421 -33.7565 -20.2357 -33.2837 
-17.223 106.405 -5.2466 133.145 81.9395 43.0913 -171.1 5.51504 90.5807 -19.625 0.209736 1.03053 30.5562 -4.09465 -5.88977 28.7808 7.73236e-006 1.06584e-005 176.603 50.8515 93.0401 -112.943 10.9359 -1.22394 12.4163 2.8637 5.99588 28.7808 1.73858e-005 2.59385e-005 0.294999 7.31078 -87.6746 12.2694 1.11053 0.848799 0.598655 1.14644 0.799606 -21.9366 0.80714 1.13955 -1.92397 0.807134 1.13956 107.702 -12.8071 -66.6042 -13.1749 63.9827 -15.7186 -8.4022 -34.8906 -0.958575 -45.0169 -1.63498 -1.15281 -79.9399 -8.43828 90.6948 31.8073 -50.0667 -5.7224 -28.596 -39.3003 -45.232 16.2405 0.187735 -2.66839 38.1146 -18.7675 25.6007 -34.6665 -20.0186 -35.2658 
-17.422 106.51 -6.63832 105.555 76.0249 72.3896 -171.23 5.89874 91.131 -13.358 0.785703 0.663527 23.6857 -3.17163 -5.63314 28.7808 7.73236e-006 1.06584e-005 176.214 47.9268 93.5276 -107.193 -20.1505 -3.0226 27.1577 -21.9962 -23.1673 28.7808 1.73858e-005 2.59385e-005 0.374268 7.05679 -88.7501 12.7754 1.06787 0.227517 1.10486 1.07265 0.182767 -21.4328 0.95391 0.525603 -1.42019 0.953912 0.525596 108.472 -9.69311 -63.118 -11.5421 62.7575 -10.7569 -9.03558 -16.1867 -12.2017 -44.2938 2.60531 -11.6403 -82.3637 -11.7767 84.616 38.3028 -57.0476 5.64503 -30.7278 -26.6265 -57.7091 21.0663 -0.342094 -5.69429 34.0866 -16.366 32.6307 -34.8244 -17.8038 -42.9384 
